# xmcd
#
# Track frame offsets: 
#        150
#        17534
#        37368
#        64469
#        89794
#        113610
#        134535
#        156671
#        180072
#        189754
#        231058
#
# Disc length: 3559 seconds
#
# Revision: 0
# Processed by: cddbd v1.5.2PL0 Copyright (c) Steve Scherf et al.
# Submitted via: ExactAudioCopy v0.95b4
#
DISCID=930de50b
DTITLE=Heathen Foray - Armored Bards
DYEAR=2010
DGENRE=Viking Metal
TTITLE0=Armored Bards
TTITLE1=The Blight
TTITLE2=Bifrost
TTITLE3=Ascension
TTITLE4=Messenger Of God
TTITLE5=Endless Sorrow
TTITLE6=A Brother's Tale
TTITLE7=Walls Of Vienna
TTITLE8=Hopfen and Malz
TTITLE9=Carthage's End
TTITLE10=Data Track
EXTD=
EXTT0=
EXTT1=
EXTT2=
EXTT3=
EXTT4=
EXTT5=
EXTT6=
EXTT7=
EXTT8=
EXTT9=
EXTT10=
PLAYORDER=
